<svg width="714" height="714" viewBox="0 0 714 714" fill="none" xmlns="http://www.w3.org/2000/svg">
<path d="M581.784 634.362C520.414 684.16 442.192 714 357 714C271.808 714 193.586 684.16 132.216 634.362C193.586 584.563 271.808 554.723 357 554.723C442.192 554.723 520.414 584.563 581.784 634.362Z" fill="#FF355E"></path>
<path fill-rule="evenodd" clip-rule="evenodd" d="M130.258 548.192C86.6807 496.565 60.4154 429.85 60.4154 357C60.4154 193.201 193.201 60.4154 357 60.4154C520.799 60.4154 653.585 193.201 653.585 357C653.585 429.85 627.319 496.565 583.742 548.192C598.735 557.56 613.105 567.827 626.773 578.918L632.744 583.763C683.513 522.099 714 443.11 714 357C714 159.834 554.166 0 357 0C159.834 0 0 159.834 0 357C0 443.11 30.487 522.099 81.2561 583.763L87.227 578.918C100.895 567.827 115.265 557.56 130.258 548.192Z" fill="#FF355E"></path>
<path d="M488.815 346.015C488.815 418.815 429.8 477.831 357 477.831C284.2 477.831 225.185 418.815 225.185 346.015C225.185 273.216 284.2 214.2 357 214.2C429.8 214.2 488.815 273.216 488.815 346.015Z" fill="#FF355E"></path>
</svg>