<svg width="3411" height="714" viewBox="0 0 3411 714" fill="none" xmlns="http://www.w3.org/2000/svg">
<path d="M581.784 634.362C520.414 684.16 442.192 714 357 714C271.808 714 193.586 684.16 132.216 634.362C193.586 584.563 271.808 554.723 357 554.723C442.192 554.723 520.414 584.563 581.784 634.362Z" fill="white"></path>
<path fill-rule="evenodd" clip-rule="evenodd" d="M130.258 548.192C86.6807 496.565 60.4154 429.85 60.4154 357C60.4154 193.201 193.201 60.4154 357 60.4154C520.799 60.4154 653.585 193.201 653.585 357C653.585 429.85 627.319 496.565 583.742 548.192C598.735 557.56 613.105 567.827 626.773 578.918L632.744 583.763C683.513 522.1 714 443.11 714 357C714 159.834 554.166 0 357 0C159.834 0 0 159.834 0 357C0 443.11 30.487 522.099 81.2561 583.763L87.227 578.918C100.895 567.827 115.265 557.56 130.258 548.192Z" fill="white"></path>
<path d="M488.815 346.015C488.815 418.815 429.8 477.831 357 477.831C284.2 477.831 225.185 418.815 225.185 346.015C225.185 273.216 284.2 214.2 357 214.2C429.8 214.2 488.815 273.216 488.815 346.015Z" fill="white"></path>
<path d="M3410.72 587.677H3322.85V98.8616H3410.72V587.677Z" fill="white"></path>
<path d="M3164.94 296.832V258.138H3251.45V587.677H3164.94V539.233C3140.94 570.115 3106.48 585.556 3063.02 585.556C3021.64 585.556 2978.84 569.48 2949.04 537.329C2919.65 504.755 2905.43 465.458 2905.43 418.501C2905.43 371.967 2919.65 331.944 2949.04 299.37C2978.84 266.796 3019.55 252.646 3060.94 252.646C3104.4 252.646 3140.94 265.95 3164.94 296.832ZM3016.46 482.757C3032.6 499.256 3053.09 507.505 3077.92 507.505C3102.76 507.505 3123.24 499.256 3139.38 482.757C3155.94 465.836 3164.94 444.261 3164.94 418.032C3164.94 391.804 3155.94 370.44 3139.38 353.942C3123.24 337.02 3102.76 328.56 3077.92 328.56C3053.09 328.56 3032.6 337.02 3016.46 353.942C3000.32 370.44 2991.93 391.804 2991.93 418.032C2991.93 444.261 3000.32 465.836 3016.46 482.757Z" fill="white"></path>
<path d="M2613.98 258.138V316.555C2621.12 296.23 2638.94 277.333 2649.06 270.5C2658.43 264.176 2679.93 252.646 2702.22 252.646V341.701C2677.41 338.242 2659.38 349.333 2641.5 363.26C2622.54 378.021 2614.34 398.936 2614.34 430.073V587.677H2526.46V258.138H2613.98Z" fill="white"></path>
<path d="M1725.72 587.677C1677.86 587.677 1637.84 571.602 1605.66 539.453C1573.89 507.303 1554.32 468.608 1554.32 421.23C1554.32 373.852 1573.89 333.02 1605.66 300.87C1637.84 268.721 1677.86 252.646 1725.72 252.646C1756.64 252.646 1784.8 260.049 1810.21 274.855C1835.62 289.66 1858.48 309.542 1871.61 334.5L1797.51 375.745C1791.15 362.631 1781.41 352.267 1768.28 344.653C1755.58 337.038 1741.18 333.231 1725.09 333.231C1700.52 333.231 1680.19 341.48 1664.1 357.978C1648.01 374.052 1638.45 394.78 1638.45 420.161C1638.45 444.697 1648.01 465.424 1664.1 482.345C1680.19 498.42 1700.52 506.457 1725.09 506.457C1741.6 506.457 1756.21 502.862 1768.92 495.67C1782.05 488.056 1795.37 477.692 1801.73 464.578L1872.88 505.188C1858.9 530.569 1839 550.663 1813.16 565.468C1787.75 580.274 1756.21 587.677 1725.72 587.677Z" fill="white"></path>
<path d="M1411.52 297.113V258.138H1499.4V587.676H1411.52V541.059C1387.14 572.138 1352.13 587.677 1307.99 587.677C1265.94 587.677 1222.46 571.499 1192.19 539.143C1162.34 506.362 1147.89 466.814 1147.89 419.558C1147.89 372.727 1162.34 332.449 1192.19 299.668C1222.46 266.886 1263.83 252.646 1305.87 252.646C1350.02 252.646 1387.14 266.035 1411.52 297.113ZM1260.69 484.223C1277.08 500.827 1297.9 509.129 1323.12 509.129C1348.35 509.129 1369.16 500.827 1385.56 484.223C1402.38 467.194 1411.52 445.482 1411.52 419.086C1411.52 392.691 1402.38 371.191 1385.56 354.587C1369.16 337.558 1348.35 329.043 1323.12 329.043C1297.9 329.043 1277.08 337.558 1260.69 354.587C1244.29 371.191 1235.77 392.691 1235.77 419.086C1235.77 445.482 1244.29 467.194 1260.69 484.223Z" fill="white"></path>
<path d="M1109.45 99.1553V188.027C1064.88 185.008 1043.79 210.216 1043.79 249.9V258.138H1109.45V347.255H1043.54V587.677H955.662V347.255H911.723V258.138H955.662V249.9C955.662 203.745 974.836 163.858 999.642 140.565C1024.87 116.841 1060.67 96.1359 1109.45 99.1553Z" fill="white"></path>
<path d="M2856 587.677H2768.12V258.138H2856V587.677Z" fill="white"></path>
<path d="M2861.49 148.292C2861.49 175.592 2839.36 197.723 2812.06 197.723C2784.76 197.723 2762.63 175.592 2762.63 148.292C2762.63 120.992 2784.76 98.8616 2812.06 98.8616C2839.36 98.8616 2861.49 120.992 2861.49 148.292Z" fill="white"></path>
<path fill-rule="evenodd" clip-rule="evenodd" d="M2312.26 587.677C2403.26 587.677 2477.03 513.907 2477.03 422.908C2477.03 331.908 2403.26 258.138 2312.26 258.138C2221.26 258.138 2147.49 331.908 2147.49 422.908C2147.49 513.907 2221.26 587.677 2312.26 587.677ZM2312.26 508.038C2359.28 508.038 2397.39 469.924 2397.39 422.908C2397.39 375.891 2359.28 337.777 2312.26 337.777C2265.25 337.777 2227.13 375.891 2227.13 422.908C2227.13 469.924 2265.25 508.038 2312.26 508.038Z" fill="white"></path>
<path d="M1916.82 450.492V203.823L2008.43 175.754V258.66H2098.9V345.113H2008.43C2008.43 375.054 2007.28 424.895 2007.28 448.249C2007.28 485.301 2030.06 500.6 2052.92 500.6C2075.77 500.6 2096.2 487.049 2096.2 487.049L2125.52 564.326C2125.52 564.326 2061.04 604.823 1996.89 579.154C1932.73 553.485 1916.82 504.277 1916.82 450.492Z" fill="white"></path>
</svg>